:FULLY-SPECIFIED
:FORCE-ALL-JOINTS-BE-3DOF
:DEGREES
713
root 5.49407 21.381 7.36077 -39.5676 -88.9727 56.6507
lfemur -35.4523 -11.9407 11.8143
ltibia 71.4233 -0 0
lfoot 6.78323 -10.2066 -0.183866
ltoes 30.6392 -0 0
rfemur -27.4873 -3.04124 -1.91314
rtibia 78.2818 -0 0
rfoot 22.9339 -20.4848 0.17748
rtoes 35.2783 -0 0
lowerback 4.83141 -0.385652 -1.73159
upperback -1.64838 -0.718936 -1.75217
thorax -4.43472 -0.343051 -0.801809
lowerneck -7.10987 -6.26291 -2.15966
upperneck -0.186593 -8.33474 4.70797
head 1.464 -4.09936 1.54823
lclavicle -1.78906e-15 2.14687e-14 0
lhumerus 1.73704 -18.3429 13.7456
lradius 49.8711 -0 0
lwrist 26.5915 0 0
lhand -22.4877 -3.18868 0.0125088
lfingers 7.12502 -0 0
lthumb 3.93777 26.7496 0.0117737
rclavicle -1.78906e-15 2.14687e-14 0
rhumerus -13.0166 -4.92496 -21.8244
rradius 100.336 -0 0
rwrist -9.41188 0 0
rhand -28.9671 -34.7504 0.296845
rfingers 7.12502 -0 0
rthumb -2.31915 -64.6423 0.28339
714
root 5.4768 21.4045 7.57762 -120.426 -88.6849 137.586
lfemur -34.7126 -13.1736 11.0327
ltibia 67.252 -0 0
lfoot 7.354 -11.5851 -0.188851
ltoes 30.1267 -0 0
rfemur -28.6711 -3.50793 -2.86155
rtibia 85.3414 -0 0
rfoot 23.0289 -21.1187 0.122815
rtoes 37.5664 -0 0
lowerback 4.79974 -0.269099 -1.65997
upperback -1.6769 -0.556126 -1.71359
thorax -4.44832 -0.263513 -0.82107
lowerneck -7.14099 -6.40988 -2.33559
upperneck -0.386797 -8.51233 4.72153
head 1.42043 -4.1914 1.57648
lclavicle -1.78906e-15 2.14687e-14 0
lhumerus -0.0105865 -18.4496 14.2733
lradius 48.8744 -0 0
lwrist 26.0353 0 0
lhand -22.745 -3.30305 0.0120141
lfingers 7.12502 -0 0
lthumb 3.6893 26.6398 0.0113
rclavicle -1.78906e-15 2.14687e-14 0
rhumerus -12.2966 -4.02417 -22.5318
rradius 100.399 -0 0
rwrist -9.74137 0 0
rhand -28.0237 -33.8932 0.287705
rfingers 7.12502 -0 0
rthumb -1.40814 -63.7957 0.274608
715
root 5.45748 21.416 7.79451 -143.233 -87.3053 160.483
lfemur -33.9585 -14.3354 10.2306
ltibia 63.1394 -0 0
lfoot 7.91781 -12.9417 -0.179988
ltoes 29.5874 -0 0
rfemur -29.808 -4.04276 -3.76019
rtibia 92.2739 -0 0
rfoot 23.095 -21.6448 0.0654516
rtoes 39.7464 -0 0
lowerback 4.75648 -0.144474 -1.58229
upperback -1.7069 -0.381872 -1.67425
thorax -4.45576 -0.178415 -0.842498
lowerneck -7.1723 -6.5539 -2.50219
upperneck -0.580313 -8.68677 4.73111
head 1.37829 -4.28187 1.60186
lclavicle -1.78906e-15 2.14687e-14 0
lhumerus -1.80406 -18.5923 14.8787
lradius 47.9475 -0 0
lwrist 25.4868 0 0
lhand -22.9904 -3.41721 0.0109627
lfingers 7.12502 -0 0
lthumb 3.45224 26.53 0.0103034
rclavicle -1.78906e-15 2.14687e-14 0
rhumerus -11.526 -3.12312 -23.2794
rradius 100.435 -0 0
rwrist -10.0642 0 0
rhand -27.1079 -33.0581 0.264232
rfingers 7.12502 -0 0
rthumb -0.523862 -62.9711 0.252163
716
root 5.43612 21.4157 8.01129 -150.55 -85.7431 167.905
lfemur -33.1948 -15.4136 9.41521
ltibia 59.1321 -0 0
lfoot 8.45268 -14.2398 -0.158545
ltoes 29.0304 -0 0
rfemur -30.8711 -4.6448 -4.59662
rtibia 98.945 -0 0
rfoot 23.1532 -22.0419 0.0112563
rtoes 41.77 -0 0
lowerback 4.70084 -0.0076173 -1.49852
upperback -1.73823 -0.190693 -1.635
thorax -4.45615 -0.0850314 -0.866862
lowerneck -7.20379 -6.69298 -2.65557
upperneck -0.765051 -8.85575 4.73556
head 1.33786 -4.36959 1.62346
lclavicle -1.78906e-15 2.14687e-14 0
lhumerus -3.64701 -18.7637 15.5641
lradius 47.0958 -0 0
lwrist 24.9546 0 0
lhand -23.2196 -3.52835 0.00943984
lfingers 7.12502 -0 0
lthumb 3.23098 26.4229 0.00886459
rclavicle -1.78906e-15 2.14687e-14 0
rhumerus -10.6809 -2.23814 -24.0623
rradius 100.441 -0 0
rwrist -10.3687 0 0
rhand -26.2442 -32.2614 0.228466
rfingers 7.12502 -0 0
rthumb 0.310176 -62.1845 0.218003
